<svg width="56" height="12" viewBox="0 0 56 12" fill="none" xmlns="http://www.w3.org/2000/svg">
<path d="M5.37784 2.8892C5.34943 2.5767 5.22301 2.33381 4.99858 2.16051C4.77699 1.98438 4.46023 1.89631 4.0483 1.89631C3.77557 1.89631 3.5483 1.93182 3.36648 2.00284C3.18466 2.07386 3.0483 2.17188 2.95739 2.29688C2.86648 2.41903 2.8196 2.55966 2.81676 2.71875C2.81108 2.84943 2.83665 2.96449 2.89347 3.06392C2.95313 3.16335 3.03835 3.25142 3.14915 3.32812C3.26278 3.40199 3.39915 3.46733 3.55824 3.52415C3.71733 3.58097 3.89631 3.63068 4.09517 3.6733L4.84517 3.84375C5.27699 3.9375 5.65767 4.0625 5.98722 4.21875C6.3196 4.375 6.59801 4.56108 6.82244 4.77699C7.04972 4.9929 7.22159 5.24148 7.33807 5.52273C7.45455 5.80398 7.5142 6.11932 7.51705 6.46875C7.5142 7.01989 7.375 7.4929 7.09943 7.88778C6.82386 8.28267 6.42756 8.58523 5.91051 8.79545C5.39631 9.00568 4.77557 9.1108 4.0483 9.1108C3.31818 9.1108 2.68182 9.00142 2.1392 8.78267C1.59659 8.56392 1.17472 8.23153 0.87358 7.78551C0.572443 7.33949 0.417614 6.77557 0.409091 6.09375H2.42898C2.44602 6.375 2.52131 6.60938 2.65483 6.79688C2.78835 6.98438 2.97159 7.12642 3.20455 7.22301C3.44034 7.3196 3.71307 7.3679 4.02273 7.3679C4.30682 7.3679 4.5483 7.32955 4.74716 7.25284C4.94886 7.17614 5.10369 7.0696 5.21165 6.93324C5.3196 6.79687 5.375 6.64062 5.37784 6.46449C5.375 6.29972 5.32386 6.15909 5.22443 6.04261C5.125 5.9233 4.97159 5.82102 4.7642 5.7358C4.55966 5.64773 4.2983 5.56676 3.98011 5.4929L3.06818 5.27983C2.3125 5.10653 1.71733 4.8267 1.28267 4.44034C0.848011 4.05114 0.632102 3.52557 0.634943 2.86364C0.632102 2.32386 0.776989 1.85085 1.0696 1.4446C1.36222 1.03835 1.76705 0.721591 2.28409 0.494318C2.80114 0.267045 3.39063 0.153409 4.05256 0.153409C4.72869 0.153409 5.31534 0.268466 5.8125 0.498579C6.3125 0.725852 6.70028 1.04545 6.97585 1.45739C7.25142 1.86932 7.39205 2.34659 7.39773 2.8892H5.37784ZM10.6662 5.26705V9H8.58239V0.272727H10.598V3.65625H10.6705C10.8182 3.25284 11.0597 2.9375 11.3949 2.71023C11.733 2.48295 12.1463 2.36932 12.6349 2.36932C13.0952 2.36932 13.4957 2.47159 13.8366 2.67614C14.1776 2.87784 14.4418 3.16335 14.6293 3.53267C14.8196 3.90199 14.9134 4.33381 14.9105 4.82812V9H12.8267V5.23722C12.8295 4.87358 12.7386 4.58949 12.554 4.38494C12.3693 4.1804 12.1094 4.07812 11.7741 4.07812C11.5554 4.07812 11.3622 4.12642 11.1946 4.22301C11.0298 4.31676 10.9006 4.4517 10.8068 4.62784C10.7159 4.80398 10.669 5.01705 10.6662 5.26705ZM19.2667 9.12358C18.5792 9.12358 17.9883 8.98295 17.494 8.7017C17.0025 8.41761 16.6232 8.02273 16.3562 7.51705C16.092 7.00852 15.9599 6.41903 15.9599 5.74858C15.9599 5.07528 16.092 4.4858 16.3562 3.98011C16.6232 3.47159 17.0025 3.0767 17.494 2.79545C17.9883 2.51136 18.5792 2.36932 19.2667 2.36932C19.9542 2.36932 20.5437 2.51136 21.0352 2.79545C21.5295 3.0767 21.9087 3.47159 22.1729 3.98011C22.44 4.4858 22.5735 5.07528 22.5735 5.74858C22.5735 6.41903 22.44 7.00852 22.1729 7.51705C21.9087 8.02273 21.5295 8.41761 21.0352 8.7017C20.5437 8.98295 19.9542 9.12358 19.2667 9.12358ZM19.2795 7.55114C19.5295 7.55114 19.7411 7.47443 19.9144 7.32102C20.0877 7.16761 20.2198 6.95455 20.3107 6.68182C20.4045 6.40909 20.4513 6.09375 20.4513 5.7358C20.4513 5.37216 20.4045 5.05398 20.3107 4.78125C20.2198 4.50852 20.0877 4.29545 19.9144 4.14205C19.7411 3.98864 19.5295 3.91193 19.2795 3.91193C19.021 3.91193 18.8022 3.98864 18.6232 4.14205C18.4471 4.29545 18.3121 4.50852 18.2184 4.78125C18.1275 5.05398 18.082 5.37216 18.082 5.7358C18.082 6.09375 18.1275 6.40909 18.2184 6.68182C18.3121 6.95455 18.4471 7.16761 18.6232 7.32102C18.8022 7.47443 19.021 7.55114 19.2795 7.55114ZM23.641 11.4545V2.45455H25.7035V3.57528H25.7674C25.8526 3.37642 25.9734 3.18466 26.1296 3C26.2887 2.81534 26.4904 2.66477 26.7347 2.5483C26.9819 2.42898 27.2773 2.36932 27.6211 2.36932C28.0756 2.36932 28.5004 2.48864 28.8952 2.72727C29.293 2.96591 29.614 3.33381 29.8583 3.83097C30.1026 4.32812 30.2248 4.96165 30.2248 5.73153C30.2248 6.47301 30.1069 7.09375 29.8711 7.59375C29.6381 8.09375 29.3228 8.46875 28.9251 8.71875C28.5302 8.96875 28.0913 9.09375 27.6083 9.09375C27.2788 9.09375 26.9933 9.03977 26.7518 8.93182C26.5103 8.82386 26.3072 8.68182 26.1424 8.50568C25.9805 8.32955 25.8555 8.14062 25.7674 7.93892H25.7248V11.4545H23.641ZM25.6822 5.72727C25.6822 6.07955 25.729 6.38636 25.8228 6.64773C25.9194 6.90909 26.0572 7.11222 26.2362 7.2571C26.418 7.39915 26.6353 7.47017 26.8881 7.47017C27.1438 7.47017 27.3612 7.39915 27.5401 7.2571C27.7191 7.11222 27.854 6.90909 27.945 6.64773C28.0387 6.38636 28.0856 6.07955 28.0856 5.72727C28.0856 5.375 28.0387 5.0696 27.945 4.81108C27.854 4.55256 27.7191 4.35227 27.5401 4.21023C27.364 4.06818 27.1467 3.99716 26.8881 3.99716C26.6325 3.99716 26.4151 4.06676 26.2362 4.20597C26.0572 4.34517 25.9194 4.54403 25.8228 4.80256C25.729 5.06108 25.6822 5.36932 25.6822 5.72727ZM32.4803 2.148C32.4803 1.532 32.7443 1.02 33.2723 0.611999C33.8083 0.203999 34.4683 -7.15256e-07 35.2523 -7.15256e-07C35.8603 -7.15256e-07 36.3323 0.123999 36.6683 0.372C37.0123 0.62 37.1843 0.976 37.1843 1.44C37.1843 1.8 37.0923 2.092 36.9083 2.316C36.7323 2.54 36.4963 2.652 36.2003 2.652C36.0883 2.652 35.9843 2.632 35.8883 2.592C35.8003 2.552 35.7203 2.488 35.6483 2.4C35.8083 2.304 35.9363 2.16 36.0323 1.968C36.1363 1.776 36.1883 1.576 36.1883 1.368C36.1883 1.112 36.1123 0.915999 35.9603 0.779999C35.8083 0.636 35.5883 0.564 35.3003 0.564C34.9563 0.564 34.6843 0.66 34.4843 0.852C34.2923 1.044 34.1963 1.312 34.1963 1.656C34.1963 1.936 34.2683 2.204 34.4123 2.46C34.5563 2.708 34.8683 3.044 35.3483 3.468C35.9803 4.02 36.3963 4.5 36.5963 4.908C36.7963 5.308 36.8963 5.756 36.8963 6.252C36.8963 7.164 36.5803 7.892 35.9483 8.436C35.3163 8.98 34.5083 9.252 33.5243 9.252C32.7403 9.252 32.1203 9.072 31.6643 8.712C31.2083 8.352 30.9803 7.844 30.9803 7.188C30.9803 6.612 31.1523 6.14 31.4963 5.772C31.8403 5.404 32.2563 5.22 32.7443 5.22C33.0483 5.22 33.2963 5.292 33.4883 5.436C33.6803 5.572 33.7843 5.764 33.8003 6.012C33.3843 6.012 33.0443 6.112 32.7803 6.312C32.5243 6.512 32.3963 6.788 32.3963 7.14C32.3963 7.476 32.5003 7.752 32.7083 7.968C32.9163 8.184 33.1963 8.292 33.5483 8.292C33.9643 8.292 34.3003 8.148 34.5563 7.86C34.8123 7.572 34.9403 7.184 34.9403 6.696C34.9403 6.32 34.8563 5.96 34.6883 5.616C34.5203 5.272 34.1723 4.812 33.6443 4.236C33.1643 3.724 32.8483 3.324 32.6963 3.036C32.5523 2.74 32.4803 2.444 32.4803 2.148ZM37.404 7.632C37.404 7.528 37.412 7.412 37.428 7.284C37.444 7.148 37.468 7.004 37.5 6.852L38.316 3H40.044L39.18 7.08C39.172 7.128 39.164 7.18 39.156 7.236C39.148 7.284 39.144 7.332 39.144 7.38C39.144 7.548 39.172 7.68 39.228 7.776C39.292 7.864 39.384 7.908 39.504 7.908C39.712 7.908 39.896 7.82 40.056 7.644C40.224 7.46 40.36 7.196 40.464 6.852L41.28 3H43.008L42.144 7.08C42.128 7.168 42.112 7.252 42.096 7.332C42.088 7.404 42.084 7.464 42.084 7.512C42.084 7.64 42.116 7.74 42.18 7.812C42.252 7.876 42.356 7.908 42.492 7.908C42.772 7.908 43.044 7.764 43.308 7.476C43.58 7.18 43.824 6.764 44.04 6.228C44.2 5.844 44.328 5.44 44.424 5.016C44.52 4.592 44.568 4.22 44.568 3.9C44.552 3.932 44.5 3.96 44.412 3.984C44.332 4.008 44.256 4.02 44.184 4.02C44.056 4.02 43.952 3.96 43.872 3.84C43.792 3.712 43.752 3.568 43.752 3.408C43.752 3.208 43.816 3.052 43.944 2.94C44.08 2.82 44.264 2.76 44.496 2.76C44.744 2.76 44.932 2.852 45.06 3.036C45.188 3.22 45.252 3.476 45.252 3.804C45.252 4.348 45.18 4.92 45.036 5.52C44.9 6.112 44.712 6.652 44.472 7.14C44.152 7.772 43.768 8.252 43.32 8.58C42.872 8.908 42.376 9.072 41.832 9.072C41.432 9.072 41.108 8.988 40.86 8.82C40.62 8.644 40.464 8.392 40.392 8.064C40.16 8.4 39.904 8.652 39.624 8.82C39.352 8.988 39.04 9.072 38.688 9.072C38.288 9.072 37.972 8.948 37.74 8.7C37.516 8.444 37.404 8.088 37.404 7.632ZM48.4913 1.404C48.4913 1.668 48.3953 1.892 48.2033 2.076C48.0193 2.26 47.7953 2.352 47.5313 2.352C47.2673 2.352 47.0433 2.26 46.8593 2.076C46.6753 1.892 46.5833 1.668 46.5833 1.404C46.5833 1.14 46.6753 0.916 46.8593 0.732C47.0433 0.539999 47.2673 0.443999 47.5313 0.443999C47.7953 0.443999 48.0193 0.539999 48.2033 0.732C48.3953 0.916 48.4913 1.14 48.4913 1.404ZM45.4313 7.632C45.4313 7.528 45.4393 7.412 45.4553 7.284C45.4713 7.148 45.4953 7.004 45.5273 6.852L46.3433 3H48.0713L47.2073 7.08C47.1913 7.152 47.1793 7.22 47.1713 7.284C47.1633 7.34 47.1593 7.4 47.1593 7.464C47.1593 7.624 47.1953 7.74 47.2673 7.812C47.3473 7.876 47.4753 7.908 47.6513 7.908C47.8753 7.908 48.0873 7.812 48.2873 7.62C48.4873 7.42 48.6353 7.164 48.7313 6.852H49.2353C48.9793 7.58 48.6353 8.132 48.2033 8.508C47.7713 8.884 47.2753 9.072 46.7153 9.072C46.3153 9.072 45.9993 8.948 45.7673 8.7C45.5433 8.444 45.4313 8.088 45.4313 7.632ZM51.9306 0.0119998C52.3226 0.0119998 52.6546 0.136 52.9266 0.383999C53.2066 0.631999 53.3466 0.94 53.3466 1.308C53.3466 1.404 53.3426 1.492 53.3346 1.572C53.3346 1.652 53.3266 1.728 53.3106 1.8H52.7466C52.7626 1.672 52.7706 1.596 52.7706 1.572C52.7706 1.54 52.7706 1.508 52.7706 1.476C52.7706 1.348 52.7266 1.248 52.6386 1.176C52.5586 1.104 52.4506 1.068 52.3146 1.068C52.1146 1.068 51.9386 1.152 51.7866 1.32C51.6426 1.488 51.5386 1.732 51.4746 2.052L51.2706 3H52.1466L52.0626 3.48H51.1746L49.7946 9.96C49.6506 10.64 49.3986 11.148 49.0386 11.484C48.6786 11.828 48.2146 12 47.6466 12C47.2546 12 46.9226 11.876 46.6506 11.628C46.3706 11.38 46.2306 11.072 46.2306 10.704C46.2306 10.288 46.3706 9.948 46.6506 9.684C46.9226 9.42 47.4706 9.16 48.2946 8.904L49.7466 2.052C49.8906 1.38 50.1466 0.872 50.5146 0.528C50.8826 0.184 51.3546 0.0119998 51.9306 0.0119998ZM48.2106 9.3C47.7466 9.452 47.4106 9.628 47.2026 9.828C46.9946 10.028 46.8906 10.264 46.8906 10.536C46.8906 10.632 46.9426 10.72 47.0466 10.8C47.1426 10.888 47.2506 10.932 47.3706 10.932C47.5226 10.932 47.6586 10.852 47.7786 10.692C47.8986 10.532 47.9906 10.3 48.0546 9.996L48.2106 9.3ZM52.3458 3H52.7418L53.1018 1.344L54.8778 1.104L54.4698 3H55.1898L55.0938 3.48H54.3738L53.6058 7.08C53.5898 7.152 53.5778 7.22 53.5698 7.284C53.5618 7.34 53.5578 7.4 53.5578 7.464C53.5578 7.624 53.5938 7.74 53.6658 7.812C53.7458 7.876 53.8738 7.908 54.0498 7.908C54.2738 7.908 54.4858 7.812 54.6858 7.62C54.8858 7.42 55.0338 7.164 55.1298 6.852H55.6338C55.3778 7.58 55.0338 8.132 54.6018 8.508C54.1698 8.884 53.6738 9.072 53.1138 9.072C52.7138 9.072 52.3978 8.948 52.1658 8.7C51.9418 8.444 51.8298 8.088 51.8298 7.632C51.8298 7.528 51.8378 7.412 51.8538 7.284C51.8698 7.148 51.8938 7.004 51.9258 6.852L52.6458 3.48H52.2498L52.3458 3Z" fill="#FFFFFF"/>
</svg>
